<svg width="69" height="69" viewBox="0 0 69 69" fill="none" xmlns="http://www.w3.org/2000/svg">
<circle cx="34.5" cy="34.5" r="34.5" fill="white"/>
<path d="M31 41.5266V39.8707H17.02L17 46.4943C17 48.3324 18.78 49.8061 21 49.8061H49C51.22 49.8061 53 48.3324 53 46.4943V39.8707H39V41.5266H31ZM51 26.6236H42.98V23.3118L38.98 20H30.98L26.98 23.3118V26.6236H19C16.8 26.6236 15 28.1139 15 29.9354V34.9031C15 36.7411 16.78 38.2148 19 38.2148H31V34.9031H39V38.2148H51C53.2 38.2148 55 36.7245 55 34.9031V29.9354C55 28.1139 53.2 26.6236 51 26.6236ZM39 26.6236H31V23.3118H39V26.6236Z" fill="#157D92"/>
</svg>
