<svg width="69" height="69" viewBox="0 0 69 69" fill="none" xmlns="http://www.w3.org/2000/svg">
<circle cx="34.5" cy="34.5" r="34.5" fill="white"/>
<path d="M55 32.9553C55 32.0149 54.6169 31.1131 53.9349 30.4481C53.253 29.7832 52.3281 29.4096 51.3636 29.4096H39.8727L41.6182 21.3079C41.6545 21.1306 41.6727 20.9356 41.6727 20.7406C41.6727 20.0138 41.3636 19.3401 40.8727 18.8614L38.9455 17L26.9818 28.6651C26.3091 29.321 25.9091 30.2074 25.9091 31.1825V48.9105C25.9091 49.8509 26.2922 50.7527 26.9742 51.4176C27.6561 52.0826 28.581 52.4561 29.5455 52.4561H45.9091C47.4182 52.4561 48.7091 51.5697 49.2545 50.2933L54.7455 37.795C54.9091 37.3873 55 36.9618 55 36.5009V32.9553ZM15 52.4561H22.2727V31.1825H15V52.4561Z" fill="#157D92"/>
</svg>
