<svg width="69" height="69" viewBox="0 0 69 69" fill="none" xmlns="http://www.w3.org/2000/svg">
<circle cx="34.5" cy="34.5" r="34.5" fill="white"/>
<path d="M35 15C23.954 15 15 22.9369 15 32.7281C15 42.5193 23.954 50.4561 35 50.4561C46.046 50.4561 55 42.5193 55 32.7281C55 22.9369 46.046 15 35 15ZM35 46.9105L39 43.3649L41 41.5921V38.0465H37V36.2737L35 34.5009H29V39.8193L33 43.3649V46.7882C25.12 45.9107 19 39.9469 19 32.7281L21 34.5009H25V30.9553H29L35 25.6368V22.0912H31L29 20.3184V19.5898C32.8463 18.1995 37.1537 18.1995 41 19.5898V22.0912L39 23.864V27.4096L41 29.1825L47.26 23.6336C48.7828 25.2485 49.8802 27.1441 50.472 29.1825H47L43 32.7281V36.2737L45 38.0465H49L49.572 38.5535C47.058 43.473 41.478 46.9105 35 46.9105Z" fill="#157D92"/>
</svg>
