<svg width="35" height="35" viewBox="0 0 35 35" fill="none" xmlns="http://www.w3.org/2000/svg">
<circle cx="17.5" cy="17.5" r="17.5" fill="white"/>
<path d="M24.461 6.1756V9.9289H22.196C21.8958 9.89108 21.5908 9.91736 21.3018 10.006C21.0128 10.0946 20.7465 10.2434 20.521 10.4424L20.523 10.4404C20.1989 10.8886 20.0458 11.4353 20.091 11.984V11.9761V14.6629H24.32L23.76 18.8716H20.097V29.6603H15.68V18.8706H12V14.6629H15.68V11.5631C15.6322 10.8144 15.7408 10.064 15.9991 9.35837C16.2575 8.65274 16.6601 8.0069 17.182 7.46087L17.179 7.46383C17.7117 6.96633 18.3413 6.58068 19.0298 6.33026C19.7182 6.07985 20.4511 5.96989 21.184 6.00706H21.171C22.3093 5.98855 23.4475 6.04948 24.577 6.1894L24.46 6.17757L24.461 6.1756Z" fill="#157D92"/>
</svg>
