<svg width="35" height="35" viewBox="0 0 35 35" fill="none" xmlns="http://www.w3.org/2000/svg">
<circle cx="17.5" cy="17.5" r="17.5" fill="white"/>
<path d="M12 11.001C11.9997 11.5314 11.7888 12.04 11.4135 12.4149C11.0382 12.7898 10.5294 13.0003 9.999 13C9.46857 12.9997 8.95996 12.7888 8.58508 12.4135C8.21019 12.0382 7.99974 11.5294 8 10.999C8.00027 10.4686 8.21123 9.95996 8.58649 9.58508C8.96175 9.21019 9.47057 8.99974 10.001 9C10.5314 9.00027 11.04 9.21123 11.4149 9.58649C11.7898 9.96175 12.0003 10.4706 12 11.001ZM12.06 14.481H8.06V27.001H12.06V14.481ZM18.38 14.481H14.4V27.001H18.34V20.431C18.34 16.771 23.11 16.431 23.11 20.431V27.001H27.06V19.071C27.06 12.901 20 13.131 18.34 16.161L18.38 14.481Z" fill="#157D92"/>
</svg>
