<svg width="35" height="35" viewBox="0 0 35 35" fill="none" xmlns="http://www.w3.org/2000/svg">
<circle cx="17.5" cy="17.5" r="17.5" fill="white"/>
<path d="M28.92 11.9713C28.15 12.3162 27.32 12.5429 26.46 12.6514C27.34 12.129 28.02 11.301 28.34 10.3055C27.51 10.7984 26.59 11.1433 25.62 11.3405C24.83 10.4928 23.72 10 22.46 10C20.11 10 18.19 11.8924 18.19 14.2284C18.19 14.5635 18.23 14.8888 18.3 15.1943C14.74 15.0169 11.57 13.3314 9.46 10.7787C9.09 11.3996 8.88 12.129 8.88 12.8978C8.88 14.3664 9.63 15.6674 10.79 16.4066C10.08 16.4066 9.42 16.2095 8.84 15.9138V15.9434C8.84 17.9935 10.32 19.7085 12.28 20.0929C11.6507 20.2626 10.9901 20.2863 10.35 20.1619C10.6216 21.0021 11.1535 21.7374 11.871 22.2642C12.5885 22.791 13.4554 23.083 14.35 23.0991C12.8336 24.2823 10.954 24.9219 9.02 24.9127C8.68 24.9127 8.34 24.893 8 24.8535C9.9 26.056 12.16 26.7558 14.58 26.7558C22.46 26.7558 26.79 20.3098 26.79 14.7212C26.79 14.5339 26.79 14.3565 26.78 14.1692C27.62 13.5779 28.34 12.8288 28.92 11.9713Z" fill="#157D92"/>
</svg>
